<?xml version="1.0" encoding="UTF-8"?>
<svg id="Layer_1" data-name="Layer 1" xmlns="http://www.w3.org/2000/svg" version="1.1" viewBox="0 0 65.85 88.42">
  <defs>
    <style>
      .cls-1 {
        fill: #231f20;
        stroke-width: 0px;
      }
    </style>
  </defs>
  <path class="cls-1" d="M13.91,31.29c-2.06-1.13-2.78-4.05-1.28-5.94.56-.71-.43-1.72-1-1-2.04,2.58-1.37,6.55,1.57,8.17.8.44,1.52-.78.71-1.22Z"/>
  <path class="cls-1" d="M24.74,26.33c-1.14-5.46-6.24-8.34-11.57-6.8-3.44,1-5.39,4.09-5.72,7.4-.06.08-.11.17-.12.3-.02.56.03,1.11.11,1.65.1,1.05.35,2.08.79,3.04.08.17.21.24.35.25,1.69,2.9,4.9,4.76,8.58,4.37,4.88-.52,8.59-5.37,7.57-10.21ZM8.35,27.75c.08-3.12,1.93-6.04,5.09-7.25,4.43-1.7,8.96,1.13,10.2,5.45,1.27,4.41-1.79,8.39-5.95,9.49-4.92,1.31-9.16-3.02-9.34-7.69Z"/>
  <path class="cls-1" d="M3.33,3.46c-.96,3.66-1.01,7.34-.14,11.03.21.89,1.57.51,1.37-.38-.81-3.45-.76-6.85.14-10.27.23-.88-1.13-1.26-1.37-.38Z"/>
  <path class="cls-1" d="M40.64,77.6c1.01-.35,1.99-.75,2.94-1.2,0,0,0,0,0,0l.09-.04c4.23-2.03,7.77-5.06,9.75-9.21.59-1.06,1.05-2.16,1.39-3.28.07-.23,0-.46-.14-.64.03-.14.02-.29-.05-.45-.53-1.11-1.08-2.21-1.63-3.31,4.87-1.33,9.89.36,12.84,4.47-2.34-5.14-5.26-9.95-8.54-14.52-3.77-5.25-9.43-8.82-15.77-10.03-3.25-5.01-6.71-9.88-10.39-14.61-4.56-5.86-9.53-11.41-14.72-16.72C12.91,4.5,8.76-1.28,3.12.31-.57,1.35,0,7.46.16,10.1c.5,7.8,1.85,15.53,3.64,23.14,1.72,7.32,4.02,14.49,6.75,21.5-2.49,5.82-2.73,12.38-.61,18.36,1.89,5.3,4.17,10.44,7.07,15.29-1.61-4.53-.36-9.36,3.1-12.62.46.88.92,1.77,1.38,2.64.11.21.28.31.46.34.08.07.18.13.31.15.02,0,.03.02.05.03,2.16.69,4.48,1.03,6.9,1.03,3.68,0,7.57-.8,11.43-2.35ZM30.56,78.11c-.96-1.95-1.92-3.91-2.87-5.86.83-.16,1.66-.35,2.48-.57l3.15,6.2c-.92.11-1.84.19-2.75.24ZM40.64,76.08c-.42.18-.85.32-1.28.48-1.63.52-3.31.9-5.01,1.16l-3.22-6.33c.63-.19,1.25-.41,1.87-.64v.02c.97,1.93,1.93,3.87,2.89,5.8.29.58,1.15.07.86-.5-.95-1.91-1.9-3.81-2.85-5.72.11-.11.18-.26.2-.41.91,1.36,1.84,2.69,2.84,3.99.25.32.65.67,1,.47.31-.18.26-.64.17-.99-.35-1.32-.73-2.63-1.12-3.93.08,0,.17-.02.25-.06.44-.21.88-.45,1.32-.69.95,1.68,2.02,3.27,3.23,4.77.4.5,1.11-.21.71-.71-1.15-1.43-2.16-2.95-3.07-4.55.64-.37,1.28-.78,1.92-1.21,1.07,1.84,2.14,3.69,3.21,5.53.32.56,1.19.05.86-.5-1.08-1.86-2.16-3.73-3.24-5.59.8-.56,1.6-1.17,2.42-1.83,1.2,2.2,2.58,4.28,4.13,6.25-2.16,2.07-4.9,3.85-8.1,5.2ZM53.38,63.5c-.11.08-.2.19-.24.36-.25.95-.59,1.83-.99,2.68-.71,1.28-1.62,2.5-2.7,3.64-1.52-1.95-2.87-4.01-4.05-6.19.79-.67,1.59-1.37,2.39-2.12.97,1.52,1.95,3.04,2.92,4.56.35.54,1.21.04.86-.5l-3.05-4.76c.82-.79,1.64-1.63,2.47-2.51.82,1.61,1.62,3.23,2.39,4.86ZM50.3,57.3c-1.01,1.08-2,2.1-2.98,3.04.45-2.08.87-4.16,1.3-6.24.57,1.06,1.13,2.13,1.68,3.2ZM2.22,16.61c-.12-.98-.23-1.96-.33-2.94-.19-1.78-.3-3.57-.42-5.36-.18-2.76.16-11.2,7.96-5.02,2.39,1.9,4.7,3.99,6.93,6.22-3.5,4.3-8.48,6.84-14.04,7.08-.04,0-.07.02-.1.03ZM19.44,71.28c-4.74-9.61-8.79-19.51-11.94-29.78-1.75-5.71-3.09-11.53-4.17-17.39-.4-2.16-.72-4.34-.99-6.52,5.78-.25,11.05-2.87,14.71-7.36,5.37,5.48,10.26,11.71,14.77,17.74-.77,5.86-2,11.6-3.72,17.26-.12.39.49.56.61.17,1.67-5.48,2.86-11.05,3.64-16.72.61.82,1.22,1.64,1.81,2.45.37.51.73,1.03,1.1,1.54-.52,3.08-1.04,6.16-1.55,9.24-.07.4.54.57.61.17.49-2.89.97-5.79,1.46-8.69.67.94,1.34,1.89,2,2.85-.32,3.62-.91,7.19-1.8,10.72-.1.4.51.56.61.17.83-3.32,1.4-6.67,1.74-10.07.76,1.13,1.51,2.26,2.25,3.41-1.07,5.04-2.14,10.08-3.21,15.12-.08.4.53.57.61.17,1.03-4.84,2.06-9.69,3.09-14.53.62.98,1.24,1.96,1.85,2.95-1.31,4.9-2.35,9.84-3.1,14.86-.06.4.55.57.61.17.72-4.81,1.71-9.57,2.95-14.27.65,1.07,1.29,2.15,1.92,3.23-1.02,5.07-2.05,10.14-3.07,15.21-.08.4.53.57.61.17.98-4.85,1.96-9.7,2.94-14.55.81,1.42,1.61,2.84,2.39,4.28-.56,2.62-1.08,5.24-1.66,7.85-3.41,3.16-6.67,5.49-9.86,7.03-.01,0-.02.02-.03.02-1.75-5.58-3.9-11.03-6.44-16.3-.41-.85-.86-1.74-1.62-2.31-.76-.57-1.92-.72-2.62-.09-.87.79-.6,2.2-.23,3.31,1.92,5.77,4.58,11.28,7.89,16.39-.14-.03-.29-.04-.43.02-4.33,1.76-9.07,2.47-13.72,2.1ZM22.63,77.54c-.84-1.59-1.66-3.18-2.46-4.78.55.03,1.1.05,1.66.05.35,0,.71-.01,1.06-.03.89,1.71,1.77,3.43,2.66,5.14.02.03.04.05.06.07-1.03-.1-2.03-.25-2.98-.45ZM26.41,77.41c-.81-1.56-1.62-3.13-2.43-4.69.9-.06,1.79-.16,2.68-.29.94,1.91,1.87,3.81,2.81,5.72-1.09.02-2.16-.02-3.2-.1.18-.14.28-.38.15-.63Z"/>
</svg>