<?xml version="1.0" encoding="UTF-8"?>
<svg id="aside" xmlns="http://www.w3.org/2000/svg" width="11.92" height="16" viewBox="0 0 11.92 16">
  <defs>
    <style>
      .cls-1 {
        fill: #231f20;
      }

      .cls-1, .cls-2 {
        stroke-width: 0px;
      }

      .cls-2 {
        fill: #fff;
      }
    </style>
  </defs>
  <path class="cls-2" d="M.38.31S-.12.78.2,2.6s.55,3.32.65,3.69,1.86,6.19,3.13,7.82c0,0,1.71.56,3.65-.36,0,0,1.8-.65,2.17-2.26,0,0-2.37-4.83-5.3-8.22C4.5,3.27,1.64-.16.85.07c0,0-.3.02-.47.24Z"/>
  <path class="cls-1" d="M2.51,5.66c-.37-.2-.5-.73-.23-1.08.1-.13-.08-.31-.18-.18-.37.47-.25,1.19.28,1.48.14.08.28-.14.13-.22h0Z"/>
  <path class="cls-1" d="M4.47,4.76c-.21-.99-1.13-1.51-2.1-1.23-.62.18-.98.74-1.04,1.34-.01.01-.02.03-.02.05,0,.1,0,.2.02.3.02.19.06.38.14.55.01.03.04.04.06.05.31.53.89.86,1.55.79.88-.09,1.56-.97,1.37-1.85h0ZM1.51,5.02c.01-.57.35-1.09.92-1.31.8-.31,1.62.2,1.85.99.23.8-.32,1.52-1.08,1.72-.89.24-1.66-.55-1.69-1.39Z"/>
  <path class="cls-1" d="M.6.62c-.17.66-.18,1.33-.03,2,.04.16.28.09.25-.07-.15-.62-.14-1.24.03-1.86.04-.16-.2-.23-.25-.07Z"/>
  <path class="cls-1" d="M7.35,14.05c.18-.06.36-.14.53-.22h.02c.77-.37,1.41-.92,1.77-1.68.11-.19.19-.39.25-.59.01-.04,0-.08-.03-.12,0-.03,0-.05,0-.08-.1-.2-.2-.4-.3-.6.88-.24,1.79.07,2.33.81-.42-.93-.95-1.8-1.55-2.63-.68-.95-1.71-1.6-2.86-1.82-.59-.91-1.22-1.79-1.88-2.65-.83-1.06-1.73-2.07-2.67-3.03C2.33.81,1.58-.24.56.05-.11.24,0,1.34.02,1.82c.09,1.41.34,2.81.66,4.19.31,1.33.73,2.62,1.22,3.89-.45,1.05-.49,2.24-.11,3.32.34.96.76,1.89,1.28,2.77-.29-.82-.07-1.7.56-2.29.08.16.17.32.25.48.02.04.05.06.08.06.01.01.03.02.06.03,0,0,0,0,0,0,.39.12.81.19,1.25.19.67,0,1.37-.14,2.07-.43h0ZM5.53,14.14c-.17-.35-.35-.71-.52-1.06.15-.03.3-.06.45-.1l.57,1.12c-.17.02-.33.03-.5.04h0ZM7.35,13.77c-.08.03-.15.06-.23.09-.3.09-.6.16-.91.21l-.58-1.15c.11-.03.23-.07.34-.12h0c.18.35.35.7.52,1.05.05.11.21.01.16-.09-.17-.35-.34-.69-.52-1.04.02-.02.03-.05.04-.07.16.25.33.49.51.72.05.06.12.12.18.09.06-.03.05-.12.03-.18-.06-.24-.13-.48-.2-.71.01,0,.03,0,.05-.01.08-.04.16-.08.24-.12.17.3.37.59.58.86.07.09.2-.04.13-.13-.21-.26-.39-.53-.56-.82.12-.07.23-.14.35-.22.19.33.39.67.58,1,.06.1.22,0,.16-.09-.2-.34-.39-.68-.59-1.01.14-.1.29-.21.44-.33.22.4.47.78.75,1.13-.39.37-.89.7-1.47.94h0ZM9.66,11.49s-.04.03-.04.07c-.05.17-.11.33-.18.49-.13.23-.29.45-.49.66-.28-.35-.52-.73-.73-1.12.14-.12.29-.25.43-.38.18.28.35.55.53.83.06.1.22,0,.16-.09l-.55-.86c.15-.14.3-.3.45-.45.15.29.29.58.43.88h0ZM9.1,10.37c-.18.2-.36.38-.54.55.08-.38.16-.75.24-1.13.1.19.2.39.3.58ZM.4,3c-.02-.18-.04-.35-.06-.53-.03-.32-.05-.65-.08-.97-.03-.5.03-2.03,1.44-.91.43.34.85.72,1.25,1.13-.63.78-1.54,1.24-2.54,1.28,0,0-.01,0-.02,0h0ZM3.51,12.9c-.86-1.74-1.59-3.53-2.16-5.39-.32-1.03-.56-2.09-.76-3.15-.07-.39-.13-.79-.18-1.18,1.05-.05,2-.52,2.66-1.33.97.99,1.86,2.12,2.67,3.21-.14,1.06-.36,2.1-.67,3.13-.02.07.09.1.11.03.3-.99.52-2,.66-3.03.11.15.22.3.33.44.07.09.13.19.2.28-.09.56-.19,1.12-.28,1.67-.01.07.1.1.11.03.09-.52.18-1.05.26-1.57.12.17.24.34.36.52-.06.66-.16,1.3-.33,1.94-.02.07.09.1.11.03.15-.6.25-1.21.32-1.82.14.2.27.41.41.62-.19.91-.39,1.83-.58,2.74-.01.07.1.1.11.03.19-.88.37-1.75.56-2.63.11.18.22.35.34.53-.24.89-.43,1.78-.56,2.69-.01.07.1.1.11.03.13-.87.31-1.73.53-2.58.12.19.23.39.35.58-.18.92-.37,1.84-.56,2.75-.01.07.1.1.11.03.18-.88.35-1.76.53-2.63.15.26.29.51.43.78-.1.47-.2.95-.3,1.42-.62.57-1.21.99-1.79,1.27,0,0,0,0,0,0-.32-1.01-.71-2-1.17-2.95-.07-.15-.16-.32-.29-.42s-.35-.13-.47-.02c-.16.14-.11.4-.04.6.35,1.04.83,2.04,1.43,2.97-.03,0-.05,0-.08,0-.78.32-1.64.45-2.48.38h0ZM4.09,14.04c-.15-.29-.3-.58-.45-.87.1,0,.2,0,.3,0,.06,0,.13,0,.19,0,.16.31.32.62.48.93,0,0,0,0,.01.01-.19-.02-.37-.05-.54-.08ZM4.78,14.01c-.15-.28-.29-.57-.44-.85.16-.01.32-.03.49-.05.17.35.34.69.51,1.04-.2,0-.39,0-.58-.02.03-.03.05-.07.03-.11h0Z"/>
  <path class="cls-2" d="M2,10.1l1.54,3.45s-.72.71-.77,1.56c0,0-1.7-2.79-.77-5.01Z"/>
  <path class="cls-2" d="M7.57,7.34l1.99,3.27s1.02-.25,1.75.17c0,0-1.34-3.04-3.74-3.43Z"/>
</svg>