<?xml version="1.0" encoding="UTF-8"?>
<svg xmlns="http://www.w3.org/2000/svg" viewBox="0 0 26.13 26.15">
  <defs>
    <style>
      .cls-1 {
        isolation: isolate;
      }

      .cls-2 {
        fill: #fff;
        stroke-width: 0px;
      }
    </style>
  </defs>
  <g id="search-icon" class="cls-1">
    <g id="search-icon-2" data-name="search-icon">
      <path class="cls-2" d="M25.67,23.51l-5.87-5.84c1.42-1.85,2.28-4.16,2.28-6.67C22.08,4.92,17.14,0,11.04,0S0,4.92,0,11s4.94,11,11.04,11c2.46,0,4.72-.81,6.55-2.16l5.89,5.86c.3.3.7.45,1.1.45s.8-.15,1.1-.45c.61-.6.61-1.58,0-2.19ZM3.11,11c0-4.36,3.56-7.9,7.93-7.9s7.93,3.54,7.93,7.9-3.56,7.9-7.93,7.9-7.93-3.54-7.93-7.9Z"/>
    </g>
  </g>
</svg>