<?xml version="1.0" encoding="UTF-8"?>
<svg id="feelnfill_txt" xmlns="http://www.w3.org/2000/svg" width="407.8" height="42.75" viewBox="0 0 407.8 42.75">
  <defs>
    <style>
      .cls-1 {
        fill: #fff;
        stroke-width: 0px;
      }
    </style>
  </defs>
  <path class="cls-1" d="M8.6,1.55h38.8l-2.2,10.35h-24.35l-1.1,5.05h22.85l-2.15,10.15h-22.85l-3.15,14.9H0L8.6,1.55Z"/>
  <path class="cls-1" d="M81.4,31.75c-3.9,8.85-11,11-20.5,11-11.35,0-18.85-3.15-16-16.5,2.6-12.2,11.8-16.6,23-16.6s17.6,4.9,15.3,16.6c-.25,1.05-.6,2.3-.9,3.25h-25.1c-.05,3.55,1.75,5.05,5.8,5.05,2.5,0,5.05-.85,5.75-2.8h12.65ZM58.75,22.4h12.45c0-2.8-1.35-4.1-5.1-4.1s-6,1.05-7.35,4.1Z"/>
  <path class="cls-1" d="M121.7,31.75c-3.9,8.85-11,11-20.5,11-11.35,0-18.85-3.15-16-16.5,2.6-12.2,11.8-16.6,23-16.6s17.6,4.9,15.3,16.6c-.25,1.05-.6,2.3-.9,3.25h-25.1c-.05,3.55,1.75,5.05,5.8,5.05,2.5,0,5.05-.85,5.75-2.8h12.65ZM99.05,22.4h12.45c0-2.8-1.35-4.1-5.1-4.1s-6,1.05-7.35,4.1Z"/>
  <path class="cls-1" d="M137.85,42h-14.2L132.55,0h14.2l-8.9,42Z"/>
  <path class="cls-1" d="M195.3,42h-13.15l-.1-1.9h-.15c-3.8,2.05-7.75,2.65-12.3,2.65-7,0-11.3-2.8-9.95-9.25,2.1-9.8,14.85-10.95,25.75-11.55l.1-.45c.7-3.2-1.35-3.95-3.6-3.95-4.25,0-4.9,1.8-5.2,3.3h-13c2.05-8.85,11.65-11.2,20.25-11.2,15.9,0,16.7,7.05,15,15.15l-3.65,17.2ZM183.95,28.8c-1.65.2-3.35.45-5.5.9-3.25.7-5,1.25-5.45,3.35-.35,1.65.85,2.3,3.45,2.3,3.1,0,6.5-1.75,6.9-3.75l.6-2.8Z"/>
  <path class="cls-1" d="M206.95,10.65h13.15l-.05,2.65h.15c3.3-2.7,7.1-3.65,12.85-3.65,6.65,0,12,3.45,10.45,10.65l-4.6,21.7h-14.1l3.5-16.55c.8-3.65.8-6.2-3.35-6.2-2.45,0-6.1,1.95-7.15,7l-3.35,15.75h-14.15l6.65-31.35Z"/>
  <path class="cls-1" d="M281.75,42h-13.2l-.1-2.05h-.1c-2.55,1.6-5.1,2.8-11,2.8-10.5,0-13.7-6.75-11.65-16.3,1.95-9.2,6.4-16.8,18.85-16.8,4.1,0,7.35,1.55,8.95,3.55h.15l2.8-13.2h14.2l-8.9,42ZM271.4,26c1-4.8-.3-6.9-4.25-6.9-3.35,0-6.2,2.1-7.2,6.9l-.25,1.15c-1.05,4.85,1.15,6.9,4.3,6.9,3.95,0,6.15-2.2,7.15-6.9l.25-1.15Z"/>
  <path class="cls-1" d="M311.85,1.55h38.8l-2.2,10.35h-24.35l-1.1,5.05h22.85l-2.15,10.15h-22.85l-3.15,14.9h-14.45l8.6-40.45Z"/>
  <path class="cls-1" d="M352.95,10.65h14.2l-6.65,31.35h-14.2l6.65-31.35ZM367.7,8.15h-14.2l1.7-8.15h14.2l-1.7,8.15Z"/>
  <path class="cls-1" d="M379.7,42h-14.2L374.4,0h14.2l-8.9,42Z"/>
  <path class="cls-1" d="M398.9,42h-14.2L393.6,0h14.2l-8.9,42Z"/>
</svg>