<?xml version="1.0" encoding="UTF-8"?>
<svg id="Layer_1" data-name="Layer 1" xmlns="http://www.w3.org/2000/svg" width="62.77" height="61.98" viewBox="0 0 62.77 61.98">
  <defs>
    <style>
      .cls-1 {
        stroke-dasharray: 0 0 2 5;
      }

      .cls-1, .cls-2 {
        fill: none;
        stroke: #000;
        stroke-linecap: round;
        stroke-linejoin: round;
        stroke-width: 2px;
      }
    </style>
  </defs>
  <rect class="cls-2" x="26.99" y="1" width="8.8" height="8.8"/>
  <g>
    <line class="cls-2" x1="36.25" y1="5.52" x2="52.46" y2="5.52"/>
    <circle class="cls-2" cx="57.37" cy="5.52" r="4.4"/>
    <line class="cls-2" x1="26.39" y1="5.52" x2="10.31" y2="5.52"/>
    <rect class="cls-2" x="3" y="30.2" width="8.8" height="8.8"/>
    <rect class="cls-2" x="50.97" y="30.2" width="8.8" height="8.8"/>
    <circle class="cls-2" cx="5.4" cy="5.52" r="4.4"/>
  </g>
  <path class="cls-1" d="M36.04,6.52c13.56,2.69,19.1,11.25,19.1,23.3"/>
  <path class="cls-1" d="M7.63,29.82c0-12.06,5.55-20.62,19.12-23.31"/>
  <g>
    <path class="cls-2" d="M30.66,20.26c0-.23-.11-.49-.55-.52-.17,0-.51.21-.67.58l-9.49,18.46c-.07.13-.07.28-.02.41l6.02,10s.02.05.03.07v3.35c0,.27.22.49.49.49l7.86.11c.26,0,.49-.23.49-.49v-3.6s0-.04,0-.06l6.64-9.82c.05-.13.05-.28-.02-.41l-9.86-18.79c-.1-.2-.33-.3-.55-.25-.22.05-.3.32-.3.55l-.23,15.21"/>
    <path class="cls-2" d="M28.59,40.23c-1.05-1.05-1.05-2.76,0-3.82,1.05-1.05,2.76-1.05,3.82,0,1.05,1.05,1.05,2.76,0,3.82s-2.76,1.05-3.82,0Z"/>
    <line class="cls-2" x1="34.83" y1="52.72" x2="35.54" y2="60.88"/>
    <line class="cls-2" x1="25.99" y1="52.61" x2="24.57" y2="60.98"/>
  </g>
</svg>