<?xml version="1.0" encoding="UTF-8"?>
<svg id="Layer_1" data-name="Layer 1" xmlns="http://www.w3.org/2000/svg" viewBox="0 0 1253.05 200.92">
  <defs>
    <style>
      .cls-1 {
        fill: #000;
        stroke-width: 0px;
      }
    </style>
  </defs>
  <path class="cls-1" d="M583.86,200.92s-.04,0-.07,0c-.79-.04-1.41-.67-1.43-1.46l-4.37-170.4-7.41,88.84c-.07.78-.71,1.38-1.5,1.38h-6.14l-4.54,16.13c-.18.65-.77,1.09-1.44,1.09s-1.26-.45-1.44-1.09l-4.54-16.13h-23.11c-1.83,0-3.56-1.2-4.74-3.29l-2.12-3.77-2.12,3.77c-1.17,2.09-2.9,3.29-4.73,3.29h-5.54l-5.57,15.61c-.24.66-.91,1.07-1.6.98-.7-.09-1.24-.64-1.31-1.34l-2.72-27.95-3.29,11.61c-.18.65-.77,1.09-1.44,1.09h-8.55l-9.99,45.7c-.16.74-.83,1.25-1.61,1.17-.76-.07-1.34-.7-1.35-1.46l-2.04-96.71-7.1,50.01c-.11.74-.74,1.29-1.49,1.29h-24.24c-.67,0-1.26-.45-1.44-1.09l-3.4-12.09-3.4,12.09c-.18.65-.77,1.09-1.44,1.09h-5.94l-9.31,80.32c-.09.78-.78,1.37-1.56,1.33-.79-.04-1.41-.67-1.43-1.46l-4.37-170.4-7.41,88.84c-.07.78-.71,1.38-1.5,1.38h-6.14l-4.54,16.13c-.18.65-.77,1.09-1.44,1.09s-1.26-.45-1.44-1.09l-4.54-16.13h-23.11c-1.83,0-3.56-1.2-4.74-3.29l-2.12-3.77-2.12,3.77c-1.17,2.09-2.9,3.29-4.73,3.29h-5.54l-5.57,15.61c-.24.66-.91,1.07-1.6.98-.7-.09-1.24-.64-1.31-1.34l-2.71-27.95-3.29,11.61c-.18.65-.77,1.09-1.44,1.09h-8.55l-9.99,45.7c-.16.74-.86,1.25-1.61,1.17-.76-.07-1.34-.7-1.35-1.46l-2.04-96.71-7.1,50.01c-.11.74-.74,1.29-1.49,1.29h-24.24c-.67,0-1.26-.45-1.44-1.09l-3.4-12.09-3.4,12.09c-.18.65-.77,1.09-1.44,1.09h-5.94l-9.31,80.32c-.09.78-.77,1.36-1.56,1.33-.79-.04-1.41-.67-1.43-1.46l-4.37-170.4-7.41,88.84c-.06.78-.71,1.38-1.49,1.38h-6.14l-4.54,16.13c-.18.65-.77,1.09-1.44,1.09s-1.26-.45-1.44-1.09l-4.54-16.13h-23.11c-1.84,0-3.56-1.2-4.74-3.29l-2.12-3.77-2.12,3.77c-1.17,2.09-2.9,3.29-4.73,3.29h-5.54l-5.57,15.61c-.24.66-.9,1.07-1.6.98-.7-.09-1.24-.64-1.31-1.34l-2.72-27.95-3.29,11.61c-.18.65-.77,1.09-1.44,1.09h-8.55l-9.99,45.7c-.16.74-.86,1.25-1.61,1.17-.76-.07-1.34-.7-1.35-1.46l-2.04-96.71-7.1,50.01c-.1.74-.74,1.29-1.48,1.29h-24.24c-.67,0-1.26-.45-1.44-1.09l-3.4-12.09-3.4,12.09c-.18.65-.77,1.09-1.44,1.09h-5.94l-9.31,80.32c-.09.78-.78,1.36-1.56,1.33-.79-.04-1.41-.67-1.43-1.46l-4.37-170.4-7.41,88.84c-.06.78-.71,1.38-1.49,1.38h-6.14l-4.54,16.13c-.18.65-.77,1.09-1.44,1.09h0c-.67,0-1.26-.45-1.44-1.09l-4.54-16.13H0v-3h30.24c.67,0,1.26.45,1.44,1.09l3.4,12.1,3.4-12.1c.18-.65.77-1.09,1.44-1.09h5.89L55.41,1.38c.07-.79.71-1.39,1.54-1.38.8.02,1.44.66,1.46,1.46l4.54,176.69,7.02-60.56c.09-.76.73-1.33,1.49-1.33h6.14l4.54-16.13c.18-.65.77-1.09,1.44-1.09s1.26.45,1.44,1.09l4.54,16.13h21.8l9.51-67.01c.11-.77.79-1.34,1.57-1.29.78.05,1.39.68,1.41,1.47l2.16,102.53,7.54-34.52c.15-.69.76-1.18,1.47-1.18h8.62l5.15-18.17c.2-.69.86-1.14,1.58-1.09.72.06,1.29.63,1.36,1.35l2.84,29.18,3.67-10.28c.21-.6.78-1,1.41-1h6.6c.71,0,1.5-.66,2.12-1.76l3.43-6.09c.27-.47.77-.76,1.31-.76h0c.54,0,1.04.29,1.31.76l3.43,6.09c.62,1.1,1.41,1.76,2.12,1.76h24.24c.67,0,1.26.45,1.44,1.09l3.4,12.1,3.4-12.1c.18-.65.77-1.09,1.44-1.09h5.89L229.37,1.38c.07-.79.72-1.39,1.54-1.38.8.02,1.44.66,1.46,1.46l4.54,176.69,7.02-60.56c.09-.76.73-1.33,1.49-1.33h6.14l4.54-16.13c.18-.65.77-1.09,1.44-1.09s1.26.45,1.44,1.09l4.54,16.13h21.8l9.51-67.01c.11-.77.8-1.33,1.58-1.29.78.05,1.39.68,1.41,1.47l2.16,102.53,7.54-34.52c.15-.69.76-1.18,1.47-1.18h8.62l5.14-18.17c.2-.69.87-1.14,1.58-1.09.72.06,1.29.63,1.36,1.35l2.83,29.18,3.67-10.28c.21-.6.78-1,1.41-1h6.6c.71,0,1.5-.66,2.12-1.76l3.43-6.09c.27-.47.77-.76,1.31-.76h0c.54,0,1.04.29,1.31.76l3.43,6.09c.62,1.1,1.41,1.76,2.12,1.76h24.24c.67,0,1.26.45,1.44,1.09l3.4,12.1,3.4-12.1c.18-.65.77-1.09,1.44-1.09h5.89L403.33,1.38c.07-.79.75-1.39,1.54-1.38.8.02,1.44.66,1.46,1.46l4.54,176.69,7.02-60.56c.09-.76.73-1.33,1.49-1.33h6.14l4.54-16.13c.18-.65.77-1.09,1.44-1.09s1.26.45,1.44,1.09l4.54,16.13h21.8l9.51-67.01c.11-.77.79-1.34,1.58-1.29.78.05,1.39.68,1.41,1.47l2.16,102.53,7.54-34.53c.15-.69.76-1.18,1.47-1.18h8.62l5.14-18.17c.2-.69.87-1.14,1.58-1.09.72.06,1.29.63,1.36,1.35l2.84,29.18,3.67-10.28c.21-.6.78-1,1.41-1h6.6c.71,0,1.5-.66,2.12-1.76l3.43-6.09c.27-.47.77-.76,1.31-.76h0c.54,0,1.04.29,1.31.76l3.43,6.09c.62,1.1,1.41,1.76,2.12,1.76h24.24c.67,0,1.26.45,1.44,1.09l3.4,12.1,3.4-12.1c.18-.65.77-1.09,1.44-1.09h5.89l9.58-114.89c.07-.79.74-1.39,1.54-1.38.8.02,1.44.66,1.46,1.46l4.54,176.69,7.02-60.56c.09-.76.73-1.33,1.49-1.33h6.14l4.54-16.13c.18-.65.77-1.09,1.44-1.09s1.26.45,1.44,1.09l4.54,16.13h24.24v3h-25.37c-.67,0-1.26-.45-1.44-1.09l-3.4-12.09-3.4,12.09c-.18.65-.77,1.09-1.44,1.09h-5.94l-9.31,80.32c-.09.76-.73,1.33-1.49,1.33Z"/>
  <path class="cls-1" d="M1196.91,200.92s-.04,0-.07,0c-.79-.04-1.41-.67-1.43-1.46l-4.37-170.4-7.41,88.84c-.07.78-.71,1.38-1.5,1.38h-6.14l-4.54,16.13c-.18.65-.77,1.09-1.44,1.09s-1.26-.45-1.44-1.09l-4.54-16.13h-23.11c-1.83,0-3.56-1.2-4.74-3.29l-2.12-3.77-2.12,3.77c-1.17,2.09-2.9,3.29-4.73,3.29h-5.54l-5.57,15.61c-.24.66-.91,1.07-1.6.98-.7-.09-1.24-.64-1.31-1.34l-2.72-27.95-3.29,11.61c-.18.65-.77,1.09-1.44,1.09h-8.55l-9.99,45.7c-.16.74-.83,1.25-1.61,1.17-.76-.07-1.34-.7-1.35-1.46l-2.04-96.71-7.1,50.01c-.11.74-.74,1.29-1.49,1.29h-24.24c-.67,0-1.26-.45-1.44-1.09l-3.4-12.09-3.4,12.09c-.18.65-.77,1.09-1.44,1.09h-5.94l-9.31,80.32c-.09.78-.78,1.37-1.56,1.33-.79-.04-1.41-.67-1.43-1.46l-4.37-170.4-7.41,88.84c-.07.78-.71,1.38-1.5,1.38h-6.14l-4.54,16.13c-.18.65-.77,1.09-1.44,1.09s-1.26-.45-1.44-1.09l-4.54-16.13h-23.11c-1.83,0-3.56-1.2-4.74-3.29l-2.12-3.77-2.12,3.77c-1.17,2.09-2.9,3.29-4.73,3.29h-5.54l-5.57,15.61c-.24.66-.91,1.07-1.6.98-.7-.09-1.24-.64-1.31-1.34l-2.71-27.95-3.29,11.61c-.18.65-.77,1.09-1.44,1.09h-8.55l-9.99,45.7c-.16.74-.86,1.25-1.61,1.17-.76-.07-1.34-.7-1.35-1.46l-2.04-96.71-7.1,50.01c-.11.74-.74,1.29-1.49,1.29h-24.24c-.67,0-1.26-.45-1.44-1.09l-3.4-12.09-3.4,12.09c-.18.65-.77,1.09-1.44,1.09h-5.94l-9.31,80.32c-.09.78-.77,1.36-1.56,1.33-.79-.04-1.41-.67-1.43-1.46l-4.37-170.4-7.41,88.84c-.06.78-.71,1.38-1.49,1.38h-6.14l-4.54,16.13c-.18.65-.77,1.09-1.44,1.09s-1.26-.45-1.44-1.09l-4.54-16.13h-23.11c-1.83,0-3.56-1.2-4.74-3.29l-2.12-3.77-2.12,3.77c-1.17,2.09-2.9,3.29-4.73,3.29h-5.54l-5.57,15.61c-.24.66-.9,1.07-1.6.98-.7-.09-1.24-.64-1.31-1.34l-2.72-27.95-3.29,11.61c-.18.65-.77,1.09-1.44,1.09h-8.55l-9.99,45.7c-.16.74-.86,1.25-1.61,1.17-.76-.07-1.34-.7-1.35-1.46l-2.04-96.71-7.1,50.01c-.1.74-.74,1.29-1.48,1.29h-24.24c-.67,0-1.26-.45-1.44-1.09l-3.4-12.09-3.4,12.09c-.18.65-.77,1.09-1.44,1.09h-5.94l-9.31,80.32c-.09.78-.78,1.36-1.56,1.33-.79-.04-1.41-.67-1.43-1.46l-4.37-170.4-7.41,88.84c-.06.78-.71,1.38-1.49,1.38h-6.14l-4.54,16.13c-.18.65-.77,1.09-1.44,1.09h0c-.67,0-1.26-.45-1.44-1.09l-4.54-16.13h-9.11v-3h10.24c.67,0,1.26.45,1.44,1.09l3.4,12.1,3.4-12.1c.18-.65.77-1.09,1.44-1.09h5.89l9.58-114.89c.07-.79.71-1.39,1.54-1.38.8.02,1.44.66,1.46,1.46l4.54,176.69,7.02-60.56c.09-.76.73-1.33,1.49-1.33h6.14l4.54-16.13c.18-.65.77-1.09,1.44-1.09s1.26.45,1.44,1.09l4.54,16.13h21.8l9.51-67.01c.11-.77.79-1.34,1.57-1.29.78.05,1.39.68,1.41,1.47l2.16,102.53,7.54-34.52c.15-.69.76-1.18,1.47-1.18h8.62l5.15-18.17c.2-.69.86-1.14,1.58-1.09.72.06,1.29.63,1.36,1.35l2.84,29.18,3.67-10.28c.21-.6.78-1,1.41-1h6.6c.71,0,1.5-.66,2.12-1.76l3.43-6.09c.27-.47.77-.76,1.31-.76h0c.54,0,1.04.29,1.31.76l3.43,6.09c.62,1.1,1.41,1.76,2.12,1.76h24.24c.67,0,1.26.45,1.44,1.09l3.4,12.1,3.4-12.1c.18-.65.77-1.09,1.44-1.09h5.89l9.58-114.89c.07-.79.72-1.39,1.54-1.38.8.02,1.44.66,1.46,1.46l4.54,176.69,7.02-60.56c.09-.76.73-1.33,1.49-1.33h6.14l4.54-16.13c.18-.65.77-1.09,1.44-1.09s1.26.45,1.44,1.09l4.54,16.13h21.8l9.51-67.01c.11-.77.8-1.33,1.58-1.29.78.05,1.39.68,1.41,1.47l2.16,102.53,7.54-34.52c.15-.69.76-1.18,1.47-1.18h8.62l5.14-18.17c.2-.69.87-1.14,1.58-1.09.72.06,1.29.63,1.36,1.35l2.83,29.18,3.67-10.28c.21-.6.78-1,1.41-1h6.6c.71,0,1.5-.66,2.12-1.76l3.43-6.09c.27-.47.77-.76,1.31-.76h0c.54,0,1.04.29,1.31.76l3.43,6.09c.62,1.1,1.41,1.76,2.12,1.76h24.24c.67,0,1.26.45,1.44,1.09l3.4,12.1,3.4-12.1c.18-.65.77-1.09,1.44-1.09h5.89l9.58-114.89c.07-.79.75-1.39,1.54-1.38.8.02,1.44.66,1.46,1.46l4.54,176.69,7.02-60.56c.09-.76.73-1.33,1.49-1.33h6.14l4.54-16.13c.18-.65.77-1.09,1.44-1.09s1.26.45,1.44,1.09l4.54,16.13h21.8l9.51-67.01c.11-.77.79-1.34,1.58-1.29.78.05,1.39.68,1.41,1.47l2.16,102.53,7.54-34.53c.15-.69.76-1.18,1.47-1.18h8.62l5.14-18.17c.2-.69.87-1.14,1.58-1.09.72.06,1.29.63,1.36,1.35l2.84,29.18,3.67-10.28c.21-.6.78-1,1.41-1h6.6c.71,0,1.5-.66,2.12-1.76l3.43-6.09c.27-.47.77-.76,1.31-.76h0c.54,0,1.04.29,1.31.76l3.43,6.09c.62,1.1,1.41,1.76,2.12,1.76h24.24c.67,0,1.26.45,1.44,1.09l3.4,12.1,3.4-12.1c.18-.65.77-1.09,1.44-1.09h5.89l9.58-114.89c.07-.79.74-1.39,1.54-1.38.8.02,1.44.66,1.46,1.46l4.54,176.69,7.02-60.56c.09-.76.73-1.33,1.49-1.33h6.14l4.54-16.13c.18-.65.77-1.09,1.44-1.09s1.26.45,1.44,1.09l4.54,16.13h28.57v3h-29.71c-.67,0-1.26-.45-1.44-1.09l-3.4-12.09-3.4,12.09c-.18.65-.77,1.09-1.44,1.09h-5.94l-9.31,80.32c-.09.76-.73,1.33-1.49,1.33Z"/>
</svg>