<?xml version="1.0" encoding="UTF-8"?>
<svg id="Layer_1" data-name="Layer 1" xmlns="http://www.w3.org/2000/svg" viewBox="0 0 53.82 61.08">
  <defs>
    <style>
      .cls-1 {
        fill: #231f20;
        stroke-width: 0px;
      }
    </style>
  </defs>
  <path class="cls-1" d="M52.52,50.2c.2-.68.17-1.39-.13-1.96-.38-.74-1.25-1-2.12-.75-1.74-3.22-2.36-6.67-1.81-10.28.19-1.23.53-2.46.87-3.65.4-1.39.81-2.84.96-4.31.49-4.76-1.13-9.19-4.58-12.48-3.22-3.07-7.88-4.76-13.12-4.76s-10.11,1.53-13.97,4.19c-3.72,2.57-6.39,6.38-7.51,10.74-1.14,4.42-.56,9.01,1.62,12.92,2.65,4.77,7.59,6.71,11.26,7.49,1.35.29,2.79.49,4.18.68,4.55.62,9.26,1.27,12.2,5.16.04.06.1.09.16.13-.03.03-.06.06-.08.1-.07.12-.12.25-.17.38-.22.67-.11,1.39.31,1.97.34.46.82.79,1.37.93.09.4.29.78.6,1.11.37.39.86.66,1.38.82.96,1.5,2.74,2.46,4.58,2.46.43,0,.86-.05,1.26-.16,2.11-.54,3.72-2.5,4.01-4.87.15-1.18-.4-2.2-.75-2.68.34-1.07.14-2.28-.52-3.18ZM44.8,57.26v-.12c-.37,0-.76-.16-1.02-.41,2.02-.49,3.82-1.64,5.39-2.97.47-.34.93-.69,1.4-1.08.31-.26.64-.54.95-.86.11.42.09.86-.09,1.25-.33.72-1.1,1.23-2.01,1.78l-2.16,1.31c-.92.56-1.68.98-2.47.98v.12ZM48.02,49.08c-3.43-3.83-5.93-8.53-7.17-13.52-.05-.35-.15-.78-.28-1.31,0-.01,0-.02,0-.03-.08-.39-.17-.78-.24-1.17,0-.04-.03-.06-.04-.1-.02-.06-.03-.11-.06-.16-.02-.04-.05-.08-.09-.12-.03-.04-.06-.08-.1-.11-.05-.04-.1-.06-.15-.09-.04-.02-.07-.04-.11-.05-.06-.02-.12-.03-.19-.03-.03,0-.06-.02-.1-.02-.02,0-.03,0-.05.01-.02,0-.03,0-.05,0-.04,0-.07.03-.11.04-.05.02-.1.03-.15.06-.05.03-.08.06-.12.09-.04.03-.08.06-.11.1-.03.04-.06.08-.08.13-.02.05-.05.09-.06.14-.02.05-.02.1-.02.16,0,.04-.02.07-.02.11,0,.02,0,.05.01.07v.02s0,.05.01.07c.04.34.13.74.25,1.22.09.43.16.85.27,1.27-.02,0-.04.02-.06.03-.11.04-.26.03-.35-.02-.26-.15-.4-.62-.55-1.12-.23-.75-.51-1.69-1.45-2.11-.13-.06-.28-.08-.42-.06-.48.06-.9.32-1.19.73-.37.52-.5,1.24-.35,1.89.11.5.34.93.54,1.3.12.23.24.45.33.69.14.38.08.79-.06.87-.25.13-.89-.35-1.32-.68-.53-.4-1.46-.8-2.3-.58-.36.09-.66.29-.87.57-.19.04-.37.15-.5.32-.26.37-.17.87.2,1.13,5.03,3.51,9.22,7.77,12.8,12.99-.72.37-1.43.69-2.13.96-.01-.09-.05-.19-.12-.27-3.27-4.32-8.31-5.09-13.19-5.82-3.44-.52-7-1.06-9.94-2.84-4.18-2.53-6.71-7.61-6.58-13.28.1-4.42,2.46-8.96,6.48-12.46,3.53-3.07,8.59-4.83,13.89-4.83,6.22,0,11.56,2.41,14.65,6.62,3.51,4.77,2.14,10.09.82,15.24-1.15,4.49-.61,8.98,1.58,12.99-.37.32-.75.63-1.14.94ZM45.13,51.04c-3.17-4.65-6.81-8.56-11.06-11.88.45.3.97.56,1.53.56.28,0,.56-.06.85-.22,1.02-.54,1.19-1.84.82-2.85-.12-.33-.27-.62-.42-.9-.17-.32-.33-.62-.39-.91-.03-.12-.02-.26.02-.4.09.19.18.45.27.77.21.71.48,1.59,1.3,2.06.48.27,1.1.33,1.65.15,1.39,4.64,3.8,8.98,7.01,12.6-.52.35-1.04.69-1.58,1.01ZM48.2,50.97c.11-.04.21-.09.29-.17.02-.02.04-.05.06-.08.68-.51,1.33-1.03,1.94-1.58.19-.11.36-.16.46-.17.1.2.1.47.03.75-.01.01-.03.02-.05.03-.8.89-1.72,1.85-2.72,2.71-1.85,1.33-3.65,2.22-5.46,2.67-.31.07-.66-.06-.84-.31-.09-.12-.13-.25-.11-.38,2.07-.75,4.35-1.99,6.4-3.47ZM49.38,59.35c-1.08.28-2.35-.02-3.25-.71,2.04-.55,4.12-1.81,5.96-3.6.08.25.13.53.09.81-.21,1.69-1.36,3.13-2.81,3.5Z"/>
  <path class="cls-1" d="M13.87,4.06c.03.16.06.32.09.48-.05.09-.08.2-.08.31-.11.16-.13.36-.07.54.47,1.3,1.14,2.53,1.98,3.63.45.72.97,1.39,1.55,2,.08.08.17.14.27.17.16.05.35.03.5-.07.04-.02.07-.05.1-.08.07,0,.14-.01.21-.04.29-.11.45-.42.38-.72-.38-1.47-.98-2.86-1.78-4.13-.5-1.12-1.13-2.18-1.88-3.16-.19-.25-.54-.31-.81-.14-.22.14-.33.4-.27.65-.15.14-.23.35-.19.55Z"/>
  <path class="cls-1" d="M32.32,7.2c0,.25.13.48.36.58h.02c.19.09.41.06.58-.06.26.05.53-.08.65-.32h0c1.33-1.51,2.03-3.51,1.92-5.51-.02-.31-.08-.58-.19-.8,0-.16.02-.31.02-.47,0-.3-.2-.56-.5-.61-.3-.05-.59.12-.68.4v.02c-.12.02-.24.05-.35.11-.54.28-.8.92-.88,1.18-.57,1.77-.89,3.61-.96,5.47Z"/>
  <path class="cls-1" d="M8.09,22.39c.04-.21-.02-.41-.17-.56,0-.27-.16-.53-.42-.59-1.67-1.04-3.84-1.4-5.75-.96-.3.07-.56.18-.75.32-.16.02-.31.04-.47.06C.22,20.7,0,20.96,0,21.26c0,.3.22.56.52.6h.02c.12.38.46.69.97.87.17.06.35.1.51.12,1.84.26,3.71.27,5.56.01.25-.03.46-.23.51-.48Z"/>
  <path class="cls-1" d="M18.07,23.63c.48-.78-.75-1.5-1.22-.72-2.4,3.96-3.04,8.5-1.84,12.97.24.88,1.6.51,1.37-.38-1.11-4.13-.51-8.23,1.7-11.88Z"/>
  <path class="cls-1" d="M23.09,42.04c-1.83-.18-3.4-1.08-4.56-2.49-.58-.71-1.58.3-1,1,1.41,1.71,3.37,2.69,5.56,2.9.91.09.9-1.33,0-1.42Z"/>
</svg>