<?xml version="1.0" encoding="UTF-8"?>
<svg id="star" xmlns="http://www.w3.org/2000/svg" width="412.3" height="413.16" viewBox="0 0 412.3 413.16">
  <defs>
    <style>
      .cls-1 {
        fill: #27ffab;
        stroke-width: 0px;
      }
    </style>
  </defs>
  <path class="cls-1" d="M322.38,399.41c-.64,1.78-.78,4.19-2.03,5.2-3.42,2.76-7.25,5.03-11.04,7.29-2,1.2-4.19,1.82-6.57.54-.74-.4-1.93-.3-2.8-.04-4.74,1.42-8.5-.15-12.32-3.04-5.16-3.91-10.85-6.96-17.83-6.29-1.33-1.36-1.37-4.53-4.48-3.38-1.33,4.54-1.37,4.06-6.15,4.47-3.36.29-5.05-1.21-7.22-3.11-2.15-1.89-4.84-3.17-7.35-4.62-2.67-1.54-5.81-2.44-5.08-6.78.19-1.14-1.27-3.38-2.45-3.8-5.2-1.87-8-6.56-12.17-9.59-.62-.45-1.45-.59-2.12-.97-1.24-.71-2.46-1.45-3.63-2.27-2-1.38-3.81-3.09-5.95-4.19-2.98-1.54-4.22-4.44-5-7.06-.96-3.21-3.03-5.01-5.44-6.56-2.86-1.83-4.87-4.25-6.73-7.02-3.46-5.14-7.71-9.81-10.63-15.22-2.61-4.84-5.09-9.79-8.1-14.47-.41-.64-3.09.45-4.65.19-3.1-.52-5.03.6-6.39,3.31-.38.76-1.3,1.34-2.09,1.77-1.78.97-4.28,1.15-3.78,4.27.07.44-1.28,1.41-2.1,1.61-1.07.26-2.3.18-3.39-.06-2.96-.65-5.13-.05-7.35,2.38-3.26,3.58-5.44,3.7-9.3,1.73-1.54,3.11-4.58,3.71-7.67,4.22-3.86.64-4.51,1.34-4.79,5.11-5.7,2.34-11.5,4.47-17.05,7.14-2.1,1.01-3.87,3.07-5.32,5-2.18,2.88-3.98,5.72-8.31,3.37-1.18-.64-2.93.1-2.96,1.7-.04,2.63-1.62,4.07-3.41,5.42-2.14,1.62-4.48,3-4.9,6.1-1.66-1.47-2.64-2.67-3.91-3.36-1.52-.83-2.84-.31-3.97,1.21-.37.5-1.9.38-2.82.18-4.06-.91-6.6.9-8.41,4.32-.45.85-1.16,1.56-1.92,2.57-1.31-1.02-2.49-1.95-3.64-2.85-2.71,1.91-.64,3.52.06,5.38-4.18,2.06-5.46-3.69-9.54-3.01.65,1.58,1.23,3.03,1.87,4.59-3.17,3.43-6.54.68-9.73.62-.28.17-.64.28-.82.53-1.48,1.97-1.79,4.96-5.35,4.99-2.45.02-4.35,2.75-7.38,1.44-1.46-.63-3.53-.31-5.2.09-6.58,1.57-11.76-1.48-16.67-5.04-1.57-1.14-3.15-2.85-2.5-5.41.58-2.3-.16-4.04-2.38-5.34-.86-.5-1.69-2.16-1.52-3.12.91-5.05,2.03-10.06,3.35-15.01.28-1.03,1.6-2.01,2.68-2.56,1.67-.85,2.48-1.75,2.3-3.8-.13-1.47.24-3.26,1.04-4.48,1.59-2.42,2.31-4.92,2.61-7.78.23-2.19.3-4.46,3.4-5.84,2.31-1.03,4.08-4.32,5.11-6.98,2.28-5.87,6.29-10.2,10.85-14.36-.6-4.97,1.12-8.07,6.36-9.84,3.55-1.2,5.44-2.67,5.38-6.9-.04-2.7,1.54-5.65,3.06-8.06.74-1.17,3.03-1.35,4.31-1.85,1.91-3.18,3.74-6.24,5.59-9.29.25-.42.56-1.01.95-1.1,3.7-.92,4.56-3.61,4.51-6.93,0-.33-.02-.87.14-.95,4.14-1.89,3.79-6.18,5.19-9.54,1.4-3.35,2.8-6.77,6.95-7.66.31-.07.7-.18.88-.4,3.87-4.89,8.51-9.69,8.24-16.32-.23-5.69,2.88-8.4,7.01-10.6,1.83-.98,4-1.72,3.71-3.95-.34-2.62-.4-6.27-3.21-7.18-3.73-1.21-5.45-3.98-7.38-6.74-1.13-1.61-2.08-3.09-4.07-4-3.96-1.82-5.82-6.09-9.21-8.65-.25-.19-.48-.52-.53-.81-1.08-6.12-6.82-7.93-10.64-11.5-2.47-2.31-5.23-4.18-7.12-7.25-1.79-2.91-2.74-5.45-1-8.37-3.86-3.68-7.76-6.67-10.67-11.01-2.51-3.75-6.32-7.04-11.38-8.01-4.19-.8-7.77-3.25-10.09-6.57-1.46-2.09-2.73-4.47-3.9-6.18,1.2-4.22,2.18-8.14,3.44-11.97.71-2.16,1.62-4.35,2.89-6.21,2.72-4,6.31-7.34,8.51-11.79.72-1.45,1.67-3.48,4.3-3.55.88-.02,1.7-2.36,2.71-3.89.83.37,1.79.8,3.36,1.5-.5-1.43-.81-2.32-1.48-4.21,2.16,1.09,3.5,1.91,4.94,2.46,1.11.43,2.35.54,3.54.79-.12-1.2-.25-2.39-.37-3.55,1.67.14,3.66.07,5.5.56,1.26.34,2.42,1.34,3.44,2.26,2.3,2.08,3.98,2.5,6.59.73,2.05-1.39,4.06-1.96,6.49-1.68,1.1.13,2.3-.09,3.39-.4,5.39-1.52,10.55-1.24,15.53,1.52,1.12.62,2.48.9,3.76,1.16,3,.63,6.04.94,7.61,4.32.41.87,2.1,1.14,3.66,1.92.35-1.8.29-3.18.89-4.15.6-.97,1.26-3.15,3.27-1.2.27.26,1.31-.27,1.99-.41,1.24-.24,2.49-.46,4.08-.74-.24,2.15-.33,3.79,2.24,3.84.7.01,1.4,1.28,2.07,2,1.93,2.08,3.91,2.72,6.99,1.99,3.78-.89,8.06-1.24,10.78,3.49.46-1.2.72-1.86,1.18-3.06,4.85,1.73,9.72,3.46,14.58,5.21,1.64.59,2.86,1.29,4.92,0,1.92-1.21,4.73-1.88,7.43-.71,4.72,2.05,8.74.15,12.48-2.7.25-.19.38-.55.62-.76.24-.21.55-.33,1.1-.64,2.46.99,5.09,2.05,7.73,3.11.28-.28.55-.55.83-.83-.72-1.63-1.45-3.27-2.39-5.38,5.79.07,7.65-3.65,8.87-8.47.65-2.57,2.3-4.97,3.86-7.2,2.36-3.37,4.92-6.65,9.66-6.83.87-4.92.94-9.91,5.15-13.39,3.46-2.87,5.21-7.88,10.93-8.39-.48-3.39,4.62-4.15,3.45-8.11,1.11.31,1.84.51,2.88.79v-4.14c5.64-1.89,8.95-9.11,16.43-6.78.62.19,1.5-.42,2.56-.76-.24-1.08-.45-1.97-.64-2.86-.52-2.4.04-3.41,2.53-3.17,2.67.26,3.33-1.13,3.28-3.1-.1-4.16,2.48-6.04,5.79-7.51.87-.38,2.33-1.06,2.31-1.56-.17-4.61,4.1-4.37,6.49-6.07,2.92-2.07,6.09-3.78,9.02-5.83,4.51-3.17,8.87-5.86,14.94-4.17,3.41.95,7.13.68,9.64,3.8.09.12.29.21.44.22,7.45.21,8.78,6.49,11.36,11.49,1.99,3.86,3.91,7.74,5.88,11.65-.89.72-2.59,1.43-2.73,2.38-.25,1.63.46,3.41.78,5.2,1.7.39,3.07.7,5.15,1.18-4.98,5.41-.82,11.21-1.79,16.69-.27,1.57-.5,3.14-.75,4.71-.39,2.51-1.6,4.93-.18,7.6.52.97-.46,2.7,0,3.74,2.19,4.8.64,9.1-1.01,13.61-.53,1.44.64,3.47.91,5.25.55,3.62,2.11,7.38-1.72,10.37-.55.43-.63,1.85-.46,2.72.38,1.92.9,3.84,1.63,5.66,1.51,3.75,1.8,7.36-.01,11.17-.74,1.56-.67,3.5-1,5.27-.2,1.09-.31,2.23-.72,3.25-2.33,5.85,1.3,11.5,7.52,11.72,1.14.04,2.35.15,3.38.59,5.48,2.32,11.07,4.46,16.3,7.25,3.77,2.01,7.06,4.94,10.91,7.72.53-1.74.9-2.93,1.4-4.57,1.24.13,2.48.21,3.7.39.95.14,2.14.88,2.79.53,3.06-1.63,4.1.59,5.43,2.88,3.01-1.48,5.97-1.14,8.72.46,9.02,5.26,19.23,7.26,28.95,10.6,2.57.88,4.55,1.69,4.55,4.82,0,.69.64,1.43,1.1,2.06,2.14,2.92,2.09,4.28-.27,7.08-.3.36-.49.82-.93,1.6.76.14,1.3.24,2.17.4.98,3.42.69,6.9-.94,10.48-1.41,3.09-2.47,6.38-3.31,9.67-.57,2.24-1.13,3.65-3.79,4.34-2.02.52-3.48,2.93-5.45,4.01-2.25,1.22-4.73,2.34-7.23,2.68-4.73.64-9.44.87-12.41,5.45-.42.65-1.24,1.09-1.95,1.48-5.13,2.82-10.16,5.88-15.48,8.3-3.46,1.57-6.87,3.6-10.94,3.67-2.56.04-3.93,1.92-5.14,3.97-4.12,6.95-10.44,9.4-18.25,8.93-1-.06-2.2.37-3.03.96-1.43,1.02-2.64,2.34-3.42,3.05-2.51.71-3.91-2.86-6.17.09,1.01.65,1.97,1.27,2.94,1.89-3.12,3.69-3.88,9.84-2.16,14.17.55,1.4.37,3.16.22,4.73-.09.92-1.15,1.79-1.12,2.66.09,3.05-1.32,4.53-4.23,4.99-.7.11-1.31.82-2.53,1.62,1.27.6,2,1.1,2.8,1.3,3.65.9,4.67,2.23,3.16,5.47-1.36,2.93-1.89,5.28.25,8.16,1.06,1.43.76,3.7-.82,5.35-.72.76-1.12,1.83-2.11,3.51,1.85-.28,2.87-.43,4.16-.63,1.8,3.47,1.63,7.34,1.44,11.04-.28,5.37-1.21,10.71-1.7,16.07-.14,1.55-.03,3.27.53,4.7,1.34,3.43,3.08,6.71,4.52,10.1.44,1.03.54,2.23.63,3.37.47,5.52.42,11.13,1.45,16.54,1.2,6.3.48,12.24-1.23,18.24-.16.56.02,1.25.17,1.85.87,3.47,1.65,6.96,2.7,10.37.79,2.55.72,4.82-1.03,6.93-1.32-1.48-.23-5.31-4.39-4.18-.31,1.67-.63,3.43-1.02,5.59,2.18-.6,3.86-1.05,5.54-1.51ZM315.14,188.79c1.11.03,2.22-.02,3.32.11,2.45.29,4.9.67,7.26,1.01.26-1.03.67-2.71,1.02-4.11-1.02-.56-2.4-1.69-3.96-2.08-2.1-.53-4.49-1.08-6.48-.56-2.2.58-1.29,2.93-1.04,4.66.05.31-.03.64.01.97q1.05,3.42,3.84,1.87c-1.48-.69-2.74-1.28-3.99-1.86ZM236.09,306.88c.54-.34,1.08-.68,1.46-.91.44,1.16.61,2.39,1.29,3.22,1.43,1.75,4.35,3.19,4.48,4.92.32,4.53,3.9,5.52,6.48,7.7.57.48,1.06,1.19,1.28,1.89,1.46,4.67,4.84,9.6,8.6,12.72.79.66,1.15,1.83,1.72,2.78,1.57-.12,2.98-.23,3.59-.28,2-3.85,3.69-7.12,5.53-10.66-2.52-1.33-3.5-3.4-1.96-6.34.42-.8.23-1.91.29-2.89.19-3.11.07-6.28.62-9.32.87-4.81,3.22-9.48.11-14.39-.62-.98-.33-2.57-.34-3.88-.01-1.8.3-3.63.09-5.4-.55-4.88.02-9.46,2.91-13.59,1.18-1.68,1.36-3.21-.43-4.74-1.72-1.47-2.93-1.18-4.69.16-3.28,2.49-6.65,5.24-10.44,6.56-2.65.92-4.97,2.27-6.34,4.09-2.62,3.49-5.8,4.06-9.36,3.42-1.97,2.92-3.71,5.55-5.51,8.15-.26.37-.77.57-1.19.81-1.64.94-3.43,1.69-4.92,2.83-2.99,2.29-2.86,3.5-.19,5.98,2.48,2.31,4.73,4.87,7.07,7.31-.83.15-1.66.29-2.49.44.31.45.63.9.94,1.35.47-.64.94-1.28,1.4-1.93ZM149.68,206.74c3.19,2.74,6.13,5.17,8.96,7.72,1.8,1.62,3.19,3.81,5.19,5.06,5,3.12,8.77,6.86,9.7,13.02.25,1.64,1.44,3.99,2.77,4.48,4.77,1.74,6.85,5.94,10.08,9.17,2.33,2.34,4.72,4.04,5.49,7.52.57,2.58,2.71,3.01,4.31.86,1.52-2.05,3.32-3.02,5.66-3.51.75-.16,1.56-.64,2.08-1.21,3.76-4.15,8.91-5.85,13.82-8.02,4.58-2.03,9.18-4.07,13.55-6.51,3.52-1.96,6.48-5,10.11-6.64,2.88-1.31,4.25-3.47,5.5-5.51,1.17.61,2.19,1.14,3.04,1.58.62-1.74.84-3.98,1.6-4.17,1.47-.38,3.23.39,4.99.7,1.1-1.75,2.25-3.69,3.51-5.55,1.89-2.79,5.3-4.14,8.25-3.27.87.26,1.66.77,2.45,1.15,1.05-1.6,2.02-2.91,2.81-4.31,1.18-2.08,3.35-4.37,3.12-6.33-.63-5.32.84-10.31,1.25-15.45.33-4.14,2.64-8.28-.06-12.48-.41-.64.18-1.9.26-2.88.11-1.27.17-2.55.27-4.23-2.53-.54-4.97-.74-7.14-1.61-2.87-1.14-5.57-2.73-8.26-4.25-1.92-1.09-3.73-1.47-5.32.34-1.33,1.51-2.86,1.69-4.4.73-1.86-1.16-3.38-3.16-5.36-3.77-2.22-.69-5.12.49-7.16-.41-4.6-2.02-9.27-2.73-14.39-2.47v-3.2c-2.44,3.35-2.45,3.36-6.03,2.43-4.46-1.16-8.7-2.76-13.64-2.03-2.94.44-6.6-.7-9.2-2.32-2.09-1.3-3.76-1.49-5.88-1.18-3.82.55-7.66,1.58-11.38-.46-.06-.03-.38.41-.58.64,3.58,3.64,3.55,4.41-.18,8.04-1.97,1.92-4.6,3.57-5.67,5.92-2.07,4.56-4.96,7.17-10.6,6.68.59,1.98,1.02,3.43,1.48,4.97-1.83,2.48-3.67,4.97-5.55,7.51-.55,0-1.03-.05-1.51.01-1,.14-2.35-.01-2.92.57-1.14,1.18.13,1.89,1.01,2.67,1.65,1.47,1.43,3.53.41,4.97-1.26,1.78-2.97,3.64-4.9,4.43-2.46,1.01-2.78,2.32-2.36,4.53.41,2.21.61,4.47.82,6.07ZM284.79,53.15c-3.73.12-3.97-.35-2.69-3.72.77-2.04.96-4.36,1.05-6.57.03-.65-1.18-1.92-1.8-1.91-1.88.05-4.21,0-5.55,1.04-3.85,3.01-7.26,6.59-10.93,9.85-1.59,1.41-3.23,3.24-5.13,3.68-3.4.79-5.79,1.96-6.3,5.73-.08.62-1.2,1.05-1.7,1.67-.81.99-1.94,1.99-2.16,3.13-.46,2.4-2.23,3.53-3.77,4.98-1.28,1.21-2.76,2.35-3.62,3.83-3.04,5.24-6.47,10.13-10.88,14.33-1.28,1.22-2.58,2.5-3.53,3.98-2.33,3.61-4.95,6.81-8.46,9.45-2.58,1.94-5.43,4.17-5.81,8.06,1.77.71,3.23,1.59,4.81,1.88,3.86.73,7.8,1.03,11.64,1.81,2.35.48,5.22.9,6.73,2.45,2.13,2.18,4.26,1.99,6.72,1.94,2.18-.05,4.16-.44,6.31,1.44,2.05,1.79,5.22,2.82,8.01,3.12,2.53.27,4.3,1.25,6.07,2.72.96.8,1.91,1.61,3.27,2.75-.17-2.06-.29-3.55-.5-6.12,2.4,1.4,3.95,2.42,5.61,3.21,1.07.51,2.79,1.33,3.37.89,3.55-2.68,7.73-3.83,11.7-5.49.33-.14.49-.69.69-.98-2.43-3.76-5.04,1.15-7.41-.2-.83-3.85,3.3-2.86,4.85-5.03-1.9-1.11-3.53-2.07-5.35-3.13.29-2.03.57-3.85,3.54-3.35.65.11,1.54-.78,2.19-1.35.22-.2.04-.86.04-1.43-1.36-.39-2.58-.73-3.88-1.1-.34-2.78-.31-5.48-1.07-7.95-.67-2.17-.98-4.1-.07-6.19,2.26-5.17,1.82-10.7.68-15.8-1.01-4.49.62-7.69,2.48-11.1.74-1.35,2.08-2.37,2.61-2.95-.68-2.95-1.2-5.22-1.74-7.55ZM109.15,256.57c-2.25,2.45-4.2,4.85-6.63,7.07-2.21,2.01-5.37,3.03-7.51,6,1.48.25,2.32.39,3.38.57-.24.95-.25,2.02-.74,2.79-4.16,6.49-8.4,12.92-12.63,19.36-.61.93-1.37,1.76-1.91,2.72-2.22,3.94-4.65,7.67-8.18,9.88-1.65,4.67-3.05,9.01-4.76,13.23-.41,1.03-1.68,2-2.77,2.41-2.5.93-2.47,2.21-1.12,4.09.76,1.06,1.2,2.39,2.09,3.29.58.58,2,1.12,2.54.8,2.05-1.17,3.96-2.6,5.8-4.1,2.78-2.27,4.24-6.57,9.02-5.71.23.04.65-.26.78-.5,1.68-3.03,3.91-2.17,6.29-1.03.51.25,1.28-.03,1.29-.03,1.62-1.97,2.63-3.98,4.26-4.97,2.07-1.25,4.74-1.44,6.96-2.5,2.29-1.1,4.34-2.7,6.52-4.04.25-.15.67.03.97-.07,6.24-2.15,12.9-3.67,16.58-9.96,2.27-3.88,5.26-6.47,9.8-7.21.85-.14,1.74-.96,2.31-1.7,1.77-2.32,1.91-5.02,1.89-7.87-.02-2.34-1.8-2.93-2.97-4.19-1.23-1.32-2.57-2.57-3.55-4.06-3.27-4.97-6.03-10.36-12.02-12.79-.47-.19-.72-.94-.98-1.31,1.11-2.05,3.99-2.81,2.65-5.81-1.25.48-2.51.97-3.74,1.46-1.93-2.51-3.69-4.79-5.75-7.47-1.74,2.86-3.17,5.2-4.52,7.42-2.24.23-4.31.45-7.21.75,1.63,1.46,2.64,2.38,3.87,3.49ZM147.92,147.25c-7.07-5.66-14.43-5.46-21.85-3.16-2.76.86-5,1.22-7.95.53-2.78-.65-5.62-.51-8.04-2.52-1-.83-3.01-1.77-3.77-1.32-2.35,1.38-4.55.56-6.71.16-4.05-.75-7.94.7-11.93.49-.17,0-.36.49-.66.92.69,1.68,1.38,2.91,3.86,2.56,3.19-.45,5.53,1.72,6.42,4.36,1.15,3.37,3.38,5.45,6.18,7.01,2.4,1.34,4.12,2.96,5.41,5.42.75,1.43,2.45,2.49,3.93,3.39,2.04,1.24,3.99,2.36,5.84,4.06,2.49,2.27,4.58,6.16,8.94,5.55,1.12-2,2.38-3.77,3.16-5.72,1.5-3.77,3.42-6.72,8.55-5.47-1.79-7.85,1.05-12.95,8.61-16.26ZM64.33,335.32c-.25-.32-.5-.64-.75-.96-.9.2-1.8.56-2.7.54-.95-.02-1.95-.69-2.84-.54-1.58.25-4.55,3.83-4.07,4.95.81,1.9,1.65,4.08,5.17,4.32-2.49-5.39,3.85-5.18,5.19-8.31ZM95.54,230.85c2.46-1.68,1.55-3.01,1.5-4.43-.04-1.21,1.39-2.46,2.26-3.84-1.86-1.33-3.81-2.24-5.77-.54-1.72,1.49-.74,3.25.11,4.88.64,1.22,1.2,2.47,1.9,3.94ZM307.51,144.71c2.88-4.41,2.91-4.68.39-8.06.37,2.03.62,3.79-1.45,5.08-.92.57-.33,2.29,1.06,2.97ZM284.2,137.92c1.58-.62,2.66-1.05,4.1-1.61-1.2-1.76-2.15-3.16-3.65-5.37-.18,2.81-.3,4.65-.45,6.98ZM284.56,130.12c.55-2.33.82-3.48,1.27-5.39-1.93.5-3.17.82-4.42,1.14-.17.39-.35.77-.52,1.16.93.78,1.87,1.57,3.67,3.09ZM221.23,347.26c-.3-.12-.61-.23-.91-.35-.71,1.32-1.42,2.63-2.33,4.33,1.53.3,2.52.5,3.7.73-.18-1.87-.32-3.29-.46-4.71ZM296.39,17.33c2.69.57,4.65.19,4.9-3.82-2.11,1.64-3.5,2.73-4.9,3.82ZM54.22,105.1c-.64,1.06-1.33,1.77-1.4,2.54-.03.38,1.39,1.34,1.66,1.19.7-.4,1.32-1.22,1.57-2,.09-.29-.96-.93-1.83-1.73ZM150.75,115.45c-.09-.58-.19-1.16-.28-1.74-1.09.1-2.18.21-3.27.31.16.84.32,1.68.49,2.52,1.02-.36,2.04-.73,3.07-1.09ZM193.13,100.18c.19-.59.38-1.19.57-1.78-1.04-.33-2.06-.69-3.12-.91-.06-.01-.57,1.54-.51,1.57.99.45,2.03.77,3.06,1.12ZM220.8,292.97c.72,1.7,1.14,2.68,1.84,4.34,1.47-2.67.48-3.38-1.84-4.34ZM146.01,241.76c-1.66.87-2.61,1.37-3.56,1.86.36.59.61,1.58,1.09,1.7,1.68.42,2.24-.7,2.47-3.56ZM396.32,201.19c-1.35-1.44-2.28-2.46-3.31-.64-.33.58-.25,1.39-.47,2.86,1.59-.94,2.48-1.46,3.78-2.22ZM300.03,317.87q1.59,2.82,3.11.71c-1.12-.26-2.12-.48-3.11-.71ZM279.78,274.56c2.64-.19,4.22-.31,6.44-.47q-2.74-1.67-6.44.47ZM296.3,294.9c-1.01.48-2.03.96-3.43,1.62,2.36,1.93,3.44,1.48,3.43-1.62ZM312.42,138.58c.72,1.21,1.26,2.13,2.03,3.43q.54-2.88-2.03-3.43ZM303.59,313.53c.4,1.77.1,3.42,2.62,4.03.28-2.1-.05-3.42-2.62-4.03ZM22.22,116.66l-.2,1.18c.68.14,1.36.31,2.05.36.06,0,.17-.77.26-1.18-.7-.12-1.41-.24-2.11-.36ZM210.47,255.15c.32,1.14.61,2.17.9,3.2,2.03-2.9.79-3.14-.9-3.2ZM11.63,370.16c-2.52.93-2.74,1.93-1.47,4.04.54-1.47.89-2.43,1.47-4.04ZM282.53,11.82c.5-.69,1.04-1.12,1.07-1.59.03-.38-.55-.8-.87-1.2-.35.45-.82.86-.99,1.38-.09.26.37.7.79,1.41ZM128.4,121.4c-.85-.24-1.36-.44-1.89-.49-.15-.02-.53.55-.5.59.37.42.79.79,1.2,1.18.29-.31.58-.62,1.19-1.27ZM272.44,356.26c-.19-.18-.38-.37-.58-.55-.61.51-1.21,1.01-1.82,1.52.31.29.63.59.94.88.48-.62.97-1.24,1.45-1.85ZM138.29,119.89c0-.34.01-.67.02-1.01h-2.41c.04.29.05.83.14.85.74.11,1.49.12,2.24.16ZM47.41,104.23c.21-.39.43-.77.64-1.16-.84-.38-1.68-.75-2.52-1.13-.15.3-.29.59-.44.89l2.32,1.39Z"/>
</svg>